<svg width="1600" height="1600" viewBox="562.1907340713745 235.74040040256796 128.51919919486417 128.51919919486417" xmlns="http://www.w3.org/2000/svg" xmlns:xlink="http://www.w3.org/1999/xlink"><rect x="562.1907340713745" y="235.74040040256796" width="128.51919919486417" height="128.51919919486417" rx="12.851919919486416" ry="12.851919919486416" id="background" fill="transparent"></rect><g class="icon-group" data-width="107.09933266238681" data-height="70.40240814880252" data-x="572.9006673376132" data-y="264.79879592559877"><g id="shape_EO5Zhl1yCw" ref="shape_EO5Zhl1yCw" key="shape_EO5Zhl1yCw" mask="" class=" icon"><g transform="translate(572.9006673376132,264.79879592559877) rotate(0,53.549666331193386,35.20120407440125) scale(1,1)" style="opacity: 1;mix-blend-mode: undefined;" filter=""><svg id="svg" version="1.1" width="107.09933266238677" height="70.4024081488025" viewBox="121.25683903697848 221.9670216309358 526.3995215169725 346.03197836906423" xmlns="http://www.w3.org/2000/svg" xmlns:xlink="http://www.w3.org/1999/xlink" class="style-removed" preserveAspectRatio="none" data-parent="shape_EO5Zhl1yCw"><path d="M354.000 223.078 C 317.948 227.649,279.665 247.871,257.210 274.205 C 237.525 297.290,223.556 329.381,221.513 356.214 C 221.165 360.771,220.711 366.789,220.503 369.587 C 220.093 375.106,221.507 392.841,222.431 393.765 C 223.625 394.958,224.224 392.784,226.062 380.600 C 229.485 357.900,234.801 340.381,242.574 326.187 C 246.265 319.447,252.085 311.103,253.139 311.039 C 253.491 311.018,253.556 314.713,253.284 319.250 C 252.638 330.039,255.132 348.639,258.565 358.635 C 263.068 371.746,269.219 381.400,279.644 391.719 C 292.898 404.838,300.423 408.117,297.843 399.649 C 296.262 394.459,294.037 378.891,294.018 372.881 C 294.008 369.791,294.675 363.389,295.501 358.654 C 301.407 324.786,328.603 296.339,365.500 285.433 C 376.483 282.187,396.099 281.067,409.164 282.940 C 445.108 288.091,480.700 314.810,500.471 351.482 C 505.431 360.682,510.923 374.213,514.000 384.813 C 516.490 393.394,518.125 393.733,519.335 385.917 C 520.522 378.253,519.401 352.858,517.459 343.437 C 510.977 311.979,495.472 283.842,472.794 262.382 C 440.993 232.290,396.763 217.656,354.000 223.078 M354.635 391.140 C 345.312 392.438,330.562 396.680,322.639 400.340 C 318.627 402.194,308.855 407.324,300.922 411.741 C 258.048 435.615,238.379 441.700,200.750 442.732 C 189.888 443.030,181.000 443.627,181.000 444.058 C 181.000 447.036,203.716 459.384,219.211 464.828 C 237.863 471.382,244.672 472.475,266.500 472.420 C 284.927 472.374,287.278 472.161,296.389 469.707 C 301.827 468.243,315.102 463.490,325.889 459.145 C 352.054 448.605,356.372 447.532,372.500 447.563 C 383.408 447.584,387.109 448.020,395.500 450.275 C 406.467 453.222,427.125 462.985,439.531 471.084 C 461.410 485.366,478.012 494.424,493.383 500.464 C 543.593 520.192,588.537 514.557,619.803 484.613 C 631.828 473.098,640.519 460.564,646.066 446.739 C 648.974 439.490,648.236 438.587,640.980 440.518 C 630.363 443.343,613.605 441.813,598.390 436.628 C 591.189 434.175,579.069 428.214,565.500 420.452 C 544.213 408.275,534.337 405.099,515.500 404.370 C 502.713 403.875,500.634 404.050,491.500 406.392 C 481.406 408.980,457.088 420.219,456.274 422.672 C 455.467 425.105,487.099 450.026,504.500 460.667 C 525.280 473.374,554.378 483.757,570.082 484.068 C 573.323 484.132,573.380 484.193,571.188 485.248 C 568.709 486.441,546.194 484.868,543.746 483.331 C 543.061 482.900,541.068 482.452,539.318 482.335 C 528.403 481.605,502.006 469.076,485.400 456.744 C 479.294 452.210,471.043 445.800,467.063 442.500 C 463.083 439.200,455.478 432.893,450.164 428.484 C 422.953 405.912,404.111 395.614,383.500 392.049 C 375.110 390.598,361.586 390.172,354.635 391.140 M121.446 422.750 C 122.671 427.835,130.878 443.686,137.175 453.132 C 149.161 471.110,169.360 489.301,184.500 495.750 C 209.539 506.416,240.408 513.743,282.245 518.952 C 329.544 524.840,347.795 525.532,394.500 523.204 C 423.510 521.759,432.463 522.308,449.243 526.562 C 459.140 529.070,473.676 534.347,475.450 536.075 C 476.032 536.642,449.845 537.000,407.760 537.000 C 337.191 537.000,319.834 536.315,291.000 532.392 C 269.586 529.479,239.711 523.787,215.142 517.941 C 201.990 514.811,199.000 514.440,199.000 515.937 C 199.000 517.445,211.728 527.815,220.459 533.420 C 247.498 550.780,266.739 558.647,297.574 564.949 L 312.500 567.999 392.500 567.981 C 478.491 567.962,481.213 567.829,502.500 562.603 C 527.876 556.374,549.712 546.208,570.500 530.944 C 584.868 520.394,585.050 519.212,571.927 521.694 C 566.344 522.750,557.762 523.297,546.500 523.314 C 523.320 523.350,512.440 521.339,478.000 510.654 C 450.684 502.180,437.960 500.000,416.000 500.034 C 395.849 500.065,382.052 502.048,347.000 509.955 C 337.043 512.201,337.513 511.587,351.500 504.073 C 373.119 492.460,397.076 487.639,421.625 489.962 C 427.025 490.473,431.632 490.701,431.864 490.470 C 432.802 489.532,429.295 486.673,423.810 483.904 C 420.614 482.291,418.000 480.624,418.000 480.200 C 418.000 479.776,417.213 479.383,416.250 479.326 C 415.288 479.270,411.333 477.881,407.462 476.240 C 399.587 472.902,389.726 470.503,380.000 469.559 C 367.772 468.373,350.898 471.230,324.544 478.950 C 307.440 483.960,275.741 485.700,257.500 482.630 C 232.987 478.504,207.049 469.422,185.000 457.244 C 172.801 450.507,138.516 429.732,131.556 424.860 C 123.437 419.177,120.434 418.550,121.446 422.750 " stroke="none" fill="#348183" fill-rule="evenodd" stroke-width="0"></path></svg></g></g></g></svg>