<svg xmlns="http://www.w3.org/2000/svg" viewBox="-2 -2 34 34" fill="none">
  <rect
    x="22.7754"
    y="0.141777"
    width="23.8097"
    height="23.8097"
    rx="3.73071"
    transform="rotate(73.0511 22.7754 0.141777)"
    fill="#1F1F1F"
  />
  <path
    d="M15.0301 21H10.9904V9.60436H15.0635C16.2097 9.60436 17.1965 9.83249 18.0237 10.2888C18.8509 10.7413 19.4871 11.3923 19.9322 12.2418C20.3811 13.0913 20.6055 14.1077 20.6055 15.291C20.6055 16.4781 20.3811 17.4982 19.9322 18.3514C19.4871 19.2046 18.8472 19.8593 18.0126 20.3156C17.1816 20.7719 16.1875 21 15.0301 21ZM13.3998 18.9356H14.9299C15.6422 18.9356 16.2413 18.8095 16.7272 18.5573C17.2169 18.3013 17.5841 17.9063 17.8289 17.3721C18.0775 16.8342 18.2017 16.1405 18.2017 15.291C18.2017 14.449 18.0775 13.7609 17.8289 13.2267C17.5841 12.6925 17.2187 12.2993 16.7328 12.0471C16.2468 11.7948 15.6477 11.6687 14.9355 11.6687H13.3998V18.9356Z"
    fill="#F4F2E9"
  />
</svg>
