<svg width="187" height="30" viewBox="0 0 187 30" fill="none" xmlns="http://www.w3.org/2000/svg">
<rect x="22.7754" y="0.141777" width="23.8097" height="23.8097" rx="3.73071" transform="rotate(73.0511 22.7754 0.141777)" fill="#1F1F1F"/>
<path d="M15.0301 21H10.9904V9.60436H15.0635C16.2097 9.60436 17.1965 9.83249 18.0237 10.2888C18.8509 10.7413 19.4871 11.3923 19.9322 12.2418C20.3811 13.0913 20.6055 14.1077 20.6055 15.291C20.6055 16.4781 20.3811 17.4982 19.9322 18.3514C19.4871 19.2046 18.8472 19.8593 18.0126 20.3156C17.1816 20.7719 16.1875 21 15.0301 21ZM13.3998 18.9356H14.9299C15.6422 18.9356 16.2413 18.8095 16.7272 18.5573C17.2169 18.3013 17.5841 17.9063 17.8289 17.3721C18.0775 16.8342 18.2017 16.1405 18.2017 15.291C18.2017 14.449 18.0775 13.7609 17.8289 13.2267C17.5841 12.6925 17.2187 12.2993 16.7328 12.0471C16.2468 11.7948 15.6477 11.6687 14.9355 11.6687H13.3998V18.9356Z" fill="#F4F2E9"/>
<path d="M37.0437 23V7.72727H43.1588C44.2824 7.72727 45.2195 7.89382 45.9702 8.22692C46.7209 8.56001 47.2852 9.02237 47.663 9.61399C48.0409 10.2006 48.2298 10.8768 48.2298 11.6424C48.2298 12.239 48.1105 12.7635 47.8718 13.2159C47.6332 13.6634 47.3051 14.0312 46.8875 14.3196C46.4748 14.603 46.0025 14.8043 45.4706 14.9237V15.0728C46.0522 15.0977 46.5966 15.2617 47.1037 15.565C47.6158 15.8683 48.0309 16.2933 48.3491 16.8402C48.6673 17.3821 48.8264 18.0284 48.8264 18.7791C48.8264 19.5895 48.625 20.3129 48.2223 20.9492C47.8246 21.5806 47.2355 22.0803 46.4549 22.4482C45.6744 22.8161 44.7124 23 43.5689 23H37.0437ZM40.2728 20.3601H42.9052C43.8051 20.3601 44.4613 20.1886 44.874 19.8455C45.2866 19.4975 45.4929 19.0352 45.4929 18.4585C45.4929 18.0359 45.391 17.663 45.1872 17.3398C44.9834 17.0167 44.6925 16.7631 44.3147 16.5792C43.9418 16.3952 43.4968 16.3033 42.9798 16.3033H40.2728V20.3601ZM40.2728 14.1183H42.6666C43.1091 14.1183 43.5018 14.0412 43.8449 13.8871C44.1929 13.728 44.4663 13.5043 44.6652 13.2159C44.869 12.9276 44.9709 12.582 44.9709 12.1793C44.9709 11.6275 44.7745 11.1825 44.3818 10.8445C43.994 10.5064 43.4422 10.3374 42.7263 10.3374H40.2728V14.1183ZM50.4479 23V11.5455H53.5278V13.544H53.6471C53.8559 12.8331 54.2064 12.2962 54.6986 11.9332C55.1908 11.5653 55.7575 11.3814 56.3988 11.3814C56.5579 11.3814 56.7295 11.3913 56.9134 11.4112C57.0974 11.4311 57.2589 11.4585 57.3981 11.4933V14.3121C57.249 14.2674 57.0427 14.2276 56.7792 14.1928C56.5157 14.158 56.2746 14.1406 56.0558 14.1406C55.5885 14.1406 55.1709 14.2425 54.803 14.4464C54.44 14.6452 54.1517 14.9237 53.9379 15.2816C53.7291 15.6396 53.6247 16.0522 53.6247 16.5195V23H50.4479ZM61.5588 23.2163C60.828 23.2163 60.1767 23.0895 59.605 22.8359C59.0333 22.5774 58.5809 22.1971 58.2478 21.695C57.9196 21.1879 57.7556 20.5565 57.7556 19.8008C57.7556 19.1644 57.8724 18.63 58.1061 18.1974C58.3397 17.7649 58.6579 17.4169 59.0606 17.1534C59.4633 16.8899 59.9207 16.6911 60.4328 16.5568C60.9498 16.4226 61.4917 16.3281 62.0585 16.2734C62.7247 16.2038 63.2616 16.1392 63.6693 16.0795C64.0769 16.0149 64.3728 15.9205 64.5567 15.7962C64.7407 15.6719 64.8326 15.4879 64.8326 15.2443V15.1996C64.8326 14.7273 64.6835 14.3619 64.3852 14.1033C64.0919 13.8448 63.6742 13.7156 63.1323 13.7156C62.5606 13.7156 62.1057 13.8423 61.7676 14.0959C61.4296 14.3445 61.2059 14.6577 61.0965 15.0355L58.1583 14.7969C58.3074 14.1009 58.6007 13.4993 59.0382 12.9922C59.4757 12.4801 60.04 12.0874 60.7311 11.8139C61.4271 11.5355 62.2325 11.3963 63.1473 11.3963C63.7836 11.3963 64.3926 11.4709 64.9743 11.62C65.561 11.7692 66.0805 12.0004 66.5329 12.3136C66.9903 12.6268 67.3507 13.0295 67.6142 13.5217C67.8777 14.0089 68.0095 14.593 68.0095 15.2741V23H64.9967V21.4116H64.9072C64.7233 21.7695 64.4772 22.0852 64.1689 22.3587C63.8607 22.6271 63.4903 22.8384 63.0578 22.9925C62.6252 23.1417 62.1256 23.2163 61.5588 23.2163ZM62.4686 21.0238C62.936 21.0238 63.3486 20.9318 63.7066 20.7479C64.0645 20.5589 64.3454 20.3054 64.5492 19.9872C64.7531 19.669 64.855 19.3086 64.855 18.9059V17.6903C64.7556 17.755 64.6189 17.8146 64.4448 17.8693C64.2758 17.919 64.0844 17.9663 63.8706 18.011C63.6568 18.0508 63.4431 18.0881 63.2293 18.1229C63.0155 18.1527 62.8216 18.18 62.6476 18.2049C62.2747 18.2596 61.9491 18.3466 61.6707 18.4659C61.3923 18.5852 61.176 18.7468 61.0219 18.9506C60.8678 19.1495 60.7907 19.3981 60.7907 19.6964C60.7907 20.1289 60.9473 20.4595 61.2605 20.6882C61.5787 20.9119 61.9814 21.0238 62.4686 21.0238ZM73.231 16.3778V23H70.0541V11.5455H73.0818V13.5664H73.2161C73.4696 12.9002 73.8947 12.3732 74.4913 11.9854C75.0879 11.5927 75.8112 11.3963 76.6614 11.3963C77.4568 11.3963 78.1504 11.5703 78.742 11.9183C79.3336 12.2663 79.7935 12.7635 80.1216 13.4098C80.4497 14.0511 80.6138 14.8168 80.6138 15.7067V23H77.437V16.2734C77.4419 15.5724 77.263 15.0256 76.9 14.6328C76.5371 14.2351 76.0375 14.0362 75.4011 14.0362C74.9735 14.0362 74.5957 14.1282 74.2676 14.3121C73.9444 14.4961 73.6909 14.7646 73.5069 15.1175C73.3279 15.4656 73.236 15.8857 73.231 16.3778ZM86.9185 23.1864C86.0485 23.1864 85.2605 22.9627 84.5545 22.5153C83.8535 22.0629 83.2967 21.3991 82.8841 20.5241C82.4764 19.6442 82.2725 18.5653 82.2725 17.2876C82.2725 15.9751 82.4838 14.8839 82.9064 14.0138C83.329 13.1388 83.8908 12.4851 84.5918 12.0526C85.2978 11.6151 86.0708 11.3963 86.911 11.3963C87.5524 11.3963 88.0868 11.5057 88.5144 11.7244C88.9469 11.9382 89.2949 12.2067 89.5584 12.5298C89.8269 12.848 90.0307 13.1612 90.1699 13.4695H90.2669V7.72727H93.4363V23H90.3042V21.1655H90.1699C90.0208 21.4837 89.8095 21.7994 89.536 22.1126C89.2676 22.4208 88.9171 22.6768 88.4846 22.8807C88.057 23.0845 87.535 23.1864 86.9185 23.1864ZM87.9252 20.6584C88.4373 20.6584 88.8698 20.5192 89.2228 20.2408C89.5808 19.9574 89.8542 19.5621 90.0431 19.055C90.237 18.5479 90.334 17.9538 90.334 17.2727C90.334 16.5916 90.2395 16 90.0506 15.4979C89.8617 14.9957 89.5882 14.608 89.2303 14.3345C88.8723 14.0611 88.4373 13.9244 87.9252 13.9244C87.4032 13.9244 86.9632 14.0661 86.6053 14.3494C86.2473 14.6328 85.9764 15.0256 85.7924 15.5277C85.6085 16.0298 85.5165 16.6115 85.5165 17.2727C85.5165 17.9389 85.6085 18.5281 85.7924 19.0401C85.9814 19.5472 86.2523 19.945 86.6053 20.2333C86.9632 20.5167 87.4032 20.6584 87.9252 20.6584ZM112.903 7.72727V23H110.114L103.469 13.3874H103.357V23H100.128V7.72727H102.962L109.554 17.3324H109.689V7.72727H112.903ZM120.311 23.2237C119.133 23.2237 118.119 22.9851 117.268 22.5078C116.423 22.0256 115.772 21.3445 115.315 20.4645C114.857 19.5795 114.629 18.533 114.629 17.3249C114.629 16.1467 114.857 15.1126 115.315 14.2227C115.772 13.3327 116.416 12.6392 117.246 12.142C118.081 11.6449 119.061 11.3963 120.184 11.3963C120.94 11.3963 121.643 11.5181 122.295 11.7617C122.951 12.0004 123.523 12.3608 124.01 12.843C124.502 13.3253 124.885 13.9318 125.158 14.6626C125.432 15.3885 125.569 16.2386 125.569 17.2131V18.0856H115.896V16.1168H122.578C122.578 15.6594 122.479 15.2543 122.28 14.9013C122.081 14.5483 121.805 14.2724 121.452 14.0735C121.104 13.8697 120.699 13.7678 120.237 13.7678C119.754 13.7678 119.327 13.8796 118.954 14.1033C118.586 14.3221 118.298 14.6179 118.089 14.9908C117.88 15.3587 117.773 15.7688 117.768 16.2212V18.093C117.768 18.6598 117.873 19.1495 118.081 19.5621C118.295 19.9748 118.596 20.293 118.984 20.5167C119.371 20.7404 119.831 20.8523 120.363 20.8523C120.716 20.8523 121.039 20.8026 121.333 20.7031C121.626 20.6037 121.877 20.4545 122.086 20.2557C122.295 20.0568 122.454 19.8132 122.563 19.5249L125.501 19.7188C125.352 20.4247 125.047 21.0412 124.584 21.5682C124.127 22.0902 123.535 22.4979 122.809 22.7912C122.088 23.0795 121.256 23.2237 120.311 23.2237ZM129.399 23L126.282 11.5455H129.496L131.271 19.2415H131.375L133.225 11.5455H136.379L138.259 19.1967H138.356L140.101 11.5455H143.307L140.198 23H136.834L134.866 15.7962H134.724L132.755 23H129.399ZM154.496 23H149.082V7.72727H154.541C156.077 7.72727 157.399 8.03303 158.508 8.64453C159.617 9.25106 160.469 10.1236 161.066 11.2621C161.668 12.4006 161.968 13.7628 161.968 15.3487C161.968 16.9396 161.668 18.3068 161.066 19.4503C160.469 20.5937 159.612 21.4712 158.493 22.0827C157.38 22.6942 156.047 23 154.496 23ZM152.311 20.2333H154.362C155.316 20.2333 156.119 20.0643 156.771 19.7262C157.427 19.3832 157.919 18.8537 158.247 18.1378C158.58 17.4169 158.747 16.4872 158.747 15.3487C158.747 14.2202 158.58 13.2979 158.247 12.582C157.919 11.8661 157.429 11.3391 156.778 11.0011C156.127 10.663 155.324 10.494 154.369 10.494H152.311V20.2333ZM167.147 23.2163C166.416 23.2163 165.765 23.0895 165.193 22.8359C164.621 22.5774 164.169 22.1971 163.836 21.695C163.508 21.1879 163.344 20.5565 163.344 19.8008C163.344 19.1644 163.461 18.63 163.694 18.1974C163.928 17.7649 164.246 17.4169 164.649 17.1534C165.051 16.8899 165.509 16.6911 166.021 16.5568C166.538 16.4226 167.08 16.3281 167.647 16.2734C168.313 16.2038 168.85 16.1392 169.257 16.0795C169.665 16.0149 169.961 15.9205 170.145 15.7962C170.329 15.6719 170.421 15.4879 170.421 15.2443V15.1996C170.421 14.7273 170.272 14.3619 169.973 14.1033C169.68 13.8448 169.262 13.7156 168.721 13.7156C168.149 13.7156 167.694 13.8423 167.356 14.0959C167.018 14.3445 166.794 14.6577 166.685 15.0355L163.746 14.7969C163.896 14.1009 164.189 13.4993 164.626 12.9922C165.064 12.4801 165.628 12.0874 166.319 11.8139C167.015 11.5355 167.821 11.3963 168.735 11.3963C169.372 11.3963 169.981 11.4709 170.562 11.62C171.149 11.7692 171.669 12.0004 172.121 12.3136C172.578 12.6268 172.939 13.0295 173.202 13.5217C173.466 14.0089 173.598 14.593 173.598 15.2741V23H170.585V21.4116H170.495C170.311 21.7695 170.065 22.0852 169.757 22.3587C169.449 22.6271 169.078 22.8384 168.646 22.9925C168.213 23.1417 167.714 23.2163 167.147 23.2163ZM168.057 21.0238C168.524 21.0238 168.937 20.9318 169.295 20.7479C169.653 20.5589 169.934 20.3054 170.137 19.9872C170.341 19.669 170.443 19.3086 170.443 18.9059V17.6903C170.344 17.755 170.207 17.8146 170.033 17.8693C169.864 17.919 169.673 17.9663 169.459 18.011C169.245 18.0508 169.031 18.0881 168.817 18.1229C168.604 18.1527 168.41 18.18 168.236 18.2049C167.863 18.2596 167.537 18.3466 167.259 18.4659C166.98 18.5852 166.764 18.7468 166.61 18.9506C166.456 19.1495 166.379 19.3981 166.379 19.6964C166.379 20.1289 166.535 20.4595 166.849 20.6882C167.167 20.9119 167.57 21.0238 168.057 21.0238ZM177.193 27.2955C176.791 27.2955 176.413 27.2631 176.06 27.1985C175.712 27.1388 175.424 27.0618 175.195 26.9673L175.911 24.5959C176.284 24.7102 176.619 24.7724 176.918 24.7823C177.221 24.7923 177.482 24.7227 177.701 24.5735C177.924 24.4244 178.106 24.1708 178.245 23.8129L178.431 23.3281L174.322 11.5455H177.663L180.035 19.9574H180.154L182.548 11.5455H185.911L181.459 24.2379C181.245 24.8544 180.954 25.3913 180.587 25.8487C180.224 26.3111 179.764 26.6665 179.207 26.9151C178.65 27.1687 177.979 27.2955 177.193 27.2955Z" fill="#1F1F1F"/>
</svg>
